<svg id="Layer_1" data-name="Layer 1" xmlns="http://www.w3.org/2000/svg" viewBox="0 0 565.87 565.87"><path d="M288,5.06C131.74,5.06,5.06,131.74,5.06,288S131.74,570.94,288,570.94,570.94,444.26,570.94,288,444.26,5.06,288,5.06Zm78.73,147.83c12.41,0,22.47,23.16,22.47,51.74s-10.06,51.75-22.47,51.75-22.48-23.16-22.48-51.75S354.31,152.89,366.73,152.89Zm-157.46,0c12.42,0,22.48,23.16,22.48,51.74s-10.06,51.75-22.48,51.75-22.47-23.16-22.47-51.75S196.86,152.89,209.27,152.89ZM491.65,332.28a3.53,3.53,0,0,1-3.28,3,94,94,0,0,1-18.77-.68C466.13,348,428.71,478,287.66,478c-143,0-179.49-133.74-182.06-143.9a96.37,96.37,0,0,1-16.62.39,3.51,3.51,0,0,1-3.27-3l-.62-4.3a3.5,3.5,0,0,1,3.74-4c8.12.67,25.94.58,39.71-10.64a3.51,3.51,0,0,1,5.45,1.27l1.77,4a3.46,3.46,0,0,1-.62,3.77c-2.18,2.33-7,6.44-15.61,9.43,6.45,22.64,44.33,133.27,168.58,133.27,123.66,0,161.77-109.57,168.49-132.94-7.87-2.95-12.31-6.78-14.39-9a3.5,3.5,0,0,1-.61-3.78l1.76-4a3.51,3.51,0,0,1,5.45-1.26c13.77,11.21,31.59,11.31,39.72,10.64a3.49,3.49,0,0,1,3.74,4Z" transform="translate(-5.06 -5.06)"/></svg>